<?xml version="1.0" encoding="utf-8"?>
<!-- Generator: Adobe Illustrator 14.0.0, SVG Export Plug-In . SVG Version: 6.00 Build 43363)  -->
<!DOCTYPE svg PUBLIC "-//W3C//DTD SVG 1.1//EN" "http://www.w3.org/Graphics/SVG/1.1/DTD/svg11.dtd">
<svg version="1.1" xmlns="http://www.w3.org/2000/svg" xmlns:xlink="http://www.w3.org/1999/xlink" x="0px" y="0px" width="200px"
	 height="100px" viewBox="0 0 200 100" enable-background="new 0 0 200 100" xml:space="preserve">
<g id="tin__x28_shadow_x29_">
	<g id="XMLID_1_">
		<g>
			<path fill="#898989" d="M169.42,57.06c5.44-0.109,3.22,3.98,9.44,2.48c4.31-1.58,6.97-8.58,9.949-1.87l-2.67,4.9
				c-1.68,1.63-2.229,3.149-6.54,4.729c-6.22,1.5-4.01-2.59-9.439-2.479l-0.62,0.069c-3.38,0.54-7.07,5.521-11.59,5.11
				c-6.41,0-6.931-3.77-11.75-3.77c-4.431,0-2,5.31-9.08,5.729c-6.19,0-6.67-3.91-12.63-3.91c-6.69,0-3.28,4.67-9.54,4.57
				c-7.05,0-5.28-2.71-12-3.19c-6.87,0-7.6,3.011-13.19,3.011c-4.14,0-5.49-3.091-9.85-4.391c-6.52-2.24-10.31,6.15-13.6,2.61
				c-3.69-3.78-12.31-4.57-15.9-1.311c-3.08,2.71-8.11,1.311-11.6-1.3c-8.31-5.689-10.67,1.36-14.47,0.7
				c-7.59-2.03-4.06-3.33-9.5-3.8l-3.65-7.28c5.95-1.49,4.82,1.29,12.42,3.32c3.79,0.66,6.15-6.391,14.46-0.7
				c3.49,2.61,8.52,4.01,11.6,1.3c3.59-3.26,12.21-2.47,15.9,1.311c3.29,3.54,7.08-4.851,13.6-2.61c4.36,1.3,5.71,4.39,9.85,4.39
				c5.59,0,6.32-3.01,13.19-3.01c6.72,0.48,4.95,3.19,12,3.19c6.26,0.1,2.85-4.57,9.54-4.57c5.96,0,6.44,3.91,12.63,3.91
				c7.08-0.42,4.65-5.73,9.08-5.73c4.82,0,5.34,3.78,11.75,3.78c4.53,0.4,8.21-4.58,11.59-5.12L169.42,57.06z"/>
		</g>
		<g>
		</g>
	</g>
</g>
<g id="tin__x28_color_x29_">
	<g id="XMLID_2_">
		<g>
			<path fill="#C6C6C6" d="M169.54,64.93l0.62-0.069c5.43-0.11,3.22,3.97,9.439,2.479c4.311-1.59,4.86-3.1,6.54-4.729L172.94,86.77
				c-68.931,13.381-147.15,0-147.15,0L14.84,64.98c5.44,0.479,1.91,1.77,9.5,3.8c3.8,0.66,6.16-6.391,14.47-0.7
				c3.49,2.61,8.52,4.01,11.6,1.31c3.59-3.27,12.21-2.479,15.9,1.301c3.29,3.55,7.08-4.841,13.6-2.61c4.36,1.31,5.71,4.39,9.85,4.39
				c5.59,0,6.32-3,13.19-3c6.72,0.48,4.95,3.181,12,3.181c6.26,0.109,2.85-4.57,9.54-4.57c5.95,0,6.439,3.92,12.62,3.92
				c7.09-0.42,4.659-5.74,9.09-5.74c4.819,0,5.34,3.78,11.74,3.78C162.47,70.44,166.15,65.47,169.54,64.93z"/>
		</g>
		<g>
		</g>
	</g>
</g>
<g id="tin__x28_outline_x29_">
	
		<line fill="none" stroke="#545454" stroke-linecap="round" stroke-linejoin="bevel" x1="11.189" y1="57.675" x2="25.794" y2="86.774"/>
	<path fill="none" stroke="#545454" stroke-linecap="round" stroke-linejoin="bevel" d="M25.794,86.774c0,0,78.218,13.377,147.146,0
		"/>
	
		<line fill="none" stroke="#545454" stroke-linecap="round" stroke-linejoin="bevel" x1="172.94" y1="86.774" x2="188.811" y2="57.675"/>
</g>
<g id="pie__x28_color_x29_">
	<g id="XMLID_3_">
		<g>
			<path fill="#BC8646" d="M194.52,52.69c7.28,3.909-4.569,9.56-5.529,5.05c-2.98-6.71-5.641,0.29-9.95,1.87
				c-6.22,1.5-4.62-2.521-10.06-2.41c-3.391,0.54-7.07,5.51-11.601,5.109c-6.399,0-6.92-3.77-11.74-3.77
				c-4.43,0-2.01,5.31-9.09,5.729c-6.18,0-6.67-3.92-12.62-3.92c-6.689,0-3.279,4.681-9.54,4.57c-7.05,0-5.279-2.7-12.01-3.18
				c-6.86,0-7.59,3-13.18,3c-4.15,0-5.49-3.08-9.85-4.391c-6.52-2.229-10.31,6.16-13.6,2.62c-3.69-3.779-12.31-4.58-15.9-1.31
				c-3.08,2.71-8.11,1.31-11.6-1.311c-8.31-5.689-10.67,1.36-14.47,0.7c-7.59-2.02-6.46-4.8-12.41-3.31
				c-4.08,2.38-11.19-0.49-6.93-4.061C51.08,18.37,138.58,15.09,194.52,52.69z"/>
		</g>
		<g>
		</g>
	</g>
</g>
<g id="pie__x28_crust_x29_">
	<g id="XMLID_4_">
		<g>
			<path fill="#7F5930" d="M179.04,54.71c2.62-3.24,9.77-3.8,16.72-1.03c5.4,2.95-5.81,8.41-6.77,3.91
				c-2.98-6.72-5.65,0.29-9.96,1.87c-6.21,1.49-4.61-2.52-10.05-2.41c-3.391,0.54-7.07,5.51-11.601,5.11
				c-6.399,0-6.92-3.78-11.74-3.78c-4.43,0-2.01,5.32-9.09,5.74c-6.18,0-6.67-3.92-12.62-3.92c-6.689,0-3.279,4.68-9.54,4.569
				c-7.05,0-5.29-2.699-12.01-3.18c-6.86,0-7.59,3-13.19,3c-4.14,0-5.48-3.08-9.84-4.39c-6.52-2.23-10.32,6.16-13.6,2.609
				c-3.69-3.779-12.31-4.569-15.9-1.3c-3.08,2.7-8.11,1.3-11.6-1.31c-8.31-5.69-10.67,1.359-14.47,0.7
				c-7.59-2.03-6.46-4.801-12.41-3.311c-4.29,1.71-10.03,0.38-8.24-1.71c4.12-2.61,4.72-0.229,8.8-2.61
				c4.15-2.45,4.82,1.28,12.41,3.311c3.8,0.66,6.16-6.39,14.47-0.7c3.49,2.62,8.52,4.01,11.6,1.311c3.59-3.271,12.21-2.48,15.9,1.31
				c3.29,3.54,7.08-4.85,13.6-2.62c4.36,1.311,5.71,4.39,9.85,4.39c5.59,0,6.32-3,13.19-3c6.72,0.48,4.21,3.19,11.26,3.19
				c4.57,0.07,1.4-4.58,10.28-4.58c5.96,0,6.439,3.92,12.63,3.92c4.97-0.29,2.5-5.74,9.08-5.74c4.819,0,5.34,3.78,11.75,3.78
				c4.52,0.4,8.2-4.57,11.59-5.109C174.98,52.62,174.88,57.44,179.04,54.71z"/>
		</g>
		<g>
		</g>
	</g>
</g>
<g id="pie__x28_outline_x29_">
	<path fill="none" stroke="#47311C" stroke-linecap="round" stroke-linejoin="bevel" d="M11.19,57.742
		c5.951-1.493,4.823,1.283,12.416,3.311"/>
	<path fill="none" stroke="#47311C" stroke-linecap="round" stroke-linejoin="bevel" d="M23.606,61.053
		c3.797,0.662,6.157-6.39,14.468-0.699"/>
	<path fill="none" stroke="#47311C" stroke-linecap="round" stroke-linejoin="bevel" d="M38.074,60.354
		c3.489,2.612,8.517,4.012,11.595,1.307"/>
	<path fill="none" stroke="#47311C" stroke-linecap="round" stroke-linejoin="bevel" d="M49.669,61.66
		c3.591-3.266,12.211-2.475,15.905,1.306"/>
	<path fill="none" stroke="#47311C" stroke-linecap="round" stroke-linejoin="bevel" d="M65.574,62.966
		c3.284,3.545,7.081-4.847,13.595-2.612"/>
	<path fill="none" stroke="#47311C" stroke-linecap="round" stroke-linejoin="bevel" d="M79.169,60.354
		c4.362,1.307,5.708,4.391,9.849,4.391"/>
	<path fill="none" stroke="#47311C" stroke-linecap="round" stroke-linejoin="bevel" d="M89.018,64.744
		c5.595,0,6.326-3.005,13.189-3.005"/>
	<path fill="none" stroke="#47311C" stroke-linecap="round" stroke-linejoin="bevel" d="M102.207,61.739
		c6.721,0.479,4.957,3.186,12.006,3.186"/>
	<path fill="none" stroke="#47311C" stroke-linecap="round" stroke-linejoin="bevel" d="M114.213,64.925
		c6.26,0.106,2.85-4.571,9.543-4.571"/>
	<path fill="none" stroke="#47311C" stroke-linecap="round" stroke-linejoin="bevel" d="M123.756,60.354
		c5.951,0,6.439,3.918,12.621,3.918"/>
	<path fill="none" stroke="#47311C" stroke-linecap="round" stroke-linejoin="bevel" d="M136.377,64.271
		c7.08-0.42,4.658-5.736,9.082-5.736"/>
	<path fill="none" stroke="#47311C" stroke-linecap="round" stroke-linejoin="bevel" d="M145.459,58.535
		c4.822,0,5.34,3.777,11.748,3.777"/>
	<path fill="none" stroke="#47311C" stroke-linecap="round" stroke-linejoin="bevel" d="M168.803,57.202
		c5.438-0.112,3.836,3.903,10.055,2.41"/>
	<path fill="none" stroke="#47311C" stroke-linecap="round" stroke-linejoin="bevel" d="M178.857,59.612
		c4.311-1.585,6.979-8.587,9.953-1.87"/>
	<path fill="none" stroke="#47311C" stroke-linecap="round" stroke-linejoin="bevel" d="M157.207,62.313
		c4.529,0.402,8.209-4.57,11.596-5.11"/>
	<path fill="none" stroke="#47311C" stroke-linecap="round" stroke-linejoin="bevel" d="M11.19,57.742
		C7.108,60.12,0,57.251,4.265,53.683"/>
	<path fill="none" stroke="#47311C" stroke-linecap="round" stroke-linejoin="bevel" d="M188.811,57.742
		c0.966,4.503,12.813-1.138,5.536-5.056"/>
	<path fill="none" stroke="#47311C" stroke-linecap="round" stroke-linejoin="bevel" d="M4.265,53.683
		c46.642-35.309,134.137-38.59,190.082-0.996"/>
</g>
<g id="holes">
	<g id="XMLID_5_">
		<g>
			<polygon fill="#893030" points="124.75,33.48 131.21,41.18 120.39,35.49 			"/>
			<polygon fill="#893030" points="102.92,36.09 97.69,46.26 97.47,36.09 			"/>
			<polygon fill="#893030" points="74.31,34.15 77.16,36.02 64.2,39.75 			"/>
			<path fill="#893030" d="M131.21,41.18l-6.46-7.7C127.98,34.89,131.21,38.8,131.21,41.18z"/>
			<path fill="#893030" d="M120.39,35.49l10.82,5.69C127.98,41.12,120.95,37.91,120.39,35.49z"/>
			<path fill="#893030" d="M97.69,46.26l5.23-10.17C103.38,38.33,99.7,44.3,97.69,46.26z"/>
			<path fill="#893030" d="M97.47,36.09l0.22,10.17C96.38,46.26,97.47,39.39,97.47,36.09z"/>
			<path fill="#893030" d="M64.2,39.75l12.96-3.73C77.16,37.87,70.85,39.75,64.2,39.75z"/>
			<path fill="#893030" d="M64.2,39.75c0-2.42,4.44-5.6,10.11-5.6L64.2,39.75z"/>
		</g>
		<g>
			<path fill="none" stroke="#47311C" stroke-linecap="round" stroke-linejoin="round" d="M77.16,36.02c0,1.85-6.31,3.73-12.96,3.73
				"/>
			<path fill="none" stroke="#47311C" stroke-linecap="round" stroke-linejoin="round" d="M64.2,39.75c0-2.42,4.44-5.6,10.11-5.6"/>
			<path fill="none" stroke="#47311C" stroke-linecap="round" stroke-linejoin="round" d="M120.39,35.49
				c0.561,2.42,7.591,5.63,10.82,5.69"/>
			<path fill="none" stroke="#47311C" stroke-linecap="round" stroke-linejoin="round" d="M131.21,41.18c0-2.38-3.229-6.29-6.46-7.7
				"/>
			<path fill="none" stroke="#47311C" stroke-linecap="round" stroke-linejoin="round" d="M97.47,36.09c0,3.3-1.09,10.17,0.22,10.17
				"/>
			<path fill="none" stroke="#47311C" stroke-linecap="round" stroke-linejoin="round" d="M97.69,46.26
				c2.01-1.96,5.69-7.93,5.23-10.17"/>
			
				<line fill="none" stroke="#47311C" stroke-linecap="round" stroke-linejoin="round" x1="74.31" y1="34.15" x2="77.16" y2="36.02"/>
			
				<line fill="none" stroke="#47311C" stroke-linecap="round" stroke-linejoin="round" x1="97.47" y1="36.09" x2="102.92" y2="36.09"/>
			
				<line fill="none" stroke="#47311C" stroke-linecap="round" stroke-linejoin="round" x1="120.39" y1="35.49" x2="124.75" y2="33.48"/>
		</g>
	</g>
</g>
<g id="steam">
	<path fill="none" stroke="#424242" stroke-width="3" stroke-linecap="round" stroke-linejoin="round" d="M86.774,20.358
		c-2.026-2.799-0.418-7.784,3.358-8.209"/>
	<path fill="none" stroke="#424242" stroke-width="3" stroke-linecap="round" stroke-linejoin="round" d="M90.132,12.149
		c3.198-1.067,1.612-6.292-1.187-7.836"/>
	<path fill="none" stroke="#424242" stroke-width="3" stroke-linecap="round" stroke-linejoin="round" d="M99.281,21.664
		c-1.874-4.757-0.193-6.633,2.31-8.209"/>
	<path fill="none" stroke="#424242" stroke-width="3" stroke-linecap="round" stroke-linejoin="round" d="M101.591,13.455
		c2.233-1.306,1.131-7.69-1.461-9.18"/>
	<path fill="none" stroke="#424242" stroke-width="3" stroke-linecap="round" stroke-linejoin="round" d="M111.067,20.172
		c-2.492-3.452,0.276-4.799,1.492-6.903"/>
	<path fill="none" stroke="#424242" stroke-width="3" stroke-linecap="round" stroke-linejoin="round" d="M112.56,13.269
		c1.239-1.813,0-7.597-1.492-9.142"/>
</g>
</svg>
